<?xml version="1.0" standalone="no"?>
<!DOCTYPE svg PUBLIC "-//W3C//DTD SVG 20010904//EN"
 "http://www.w3.org/TR/2001/REC-SVG-20010904/DTD/svg10.dtd">
<svg version="1.0" xmlns="http://www.w3.org/2000/svg"
 width="738.000000pt" height="738.000000pt" viewBox="0 0 738.000000 738.000000"
 preserveAspectRatio="xMidYMid meet">
<metadata>
Created by potrace 1.14, written by Peter Selinger 2001-2017
</metadata>
<g transform="translate(0.000000,738.000000) scale(0.100000,-0.100000)"
fill="#000000" stroke="none">
<path d="M3607 7374 c-1 -1 -60 -4 -132 -8 -71 -3 -141 -8 -155 -10 -14 -3
-50 -7 -80 -10 -195 -19 -543 -99 -760 -174 -740 -257 -1389 -757 -1841 -1417
-73 -107 -241 -393 -244 -415 -1 -3 -10 -23 -22 -45 -11 -22 -42 -89 -68 -150
-158 -366 -254 -761 -290 -1185 -7 -75 -7 -446 -1 -530 13 -181 37 -338 82
-548 35 -161 82 -318 149 -497 321 -865 997 -1603 1840 -2010 398 -193 788
-303 1235 -350 30 -3 73 -8 95 -10 55 -7 467 -7 540 0 151 12 305 33 420 55
55 11 109 22 120 24 11 2 58 14 105 26 401 101 788 275 1143 512 79 53 292
211 307 227 3 3 43 40 90 81 686 607 1122 1461 1216 2380 11 109 18 272 15
350 l-1 25 -1835 0 c-1216 0 -1836 3 -1838 10 -2 5 -3 832 -3 1838 1 1005 -1
1827 -4 1828 -11 1 -82 4 -83 3z"/>
</g>
</svg>
